<svg id="visual" viewBox="0 0 900 600" width="900" height="600" xmlns="http://www.w3.org/2000/svg" xmlns:xlink="http://www.w3.org/1999/xlink" version="1.1"><path d="M0 55L82 43L164 37L245 103L327 97L409 91L491 49L573 79L655 73L736 103L818 85L900 97L900 0L818 0L736 0L655 0L573 0L491 0L409 0L327 0L245 0L164 0L82 0L0 0Z" fill="#3f2e56"></path><path d="M0 181L82 181L164 157L245 295L327 217L409 193L491 253L573 205L655 163L736 229L818 217L900 241L900 95L818 83L736 101L655 71L573 77L491 47L409 89L327 95L245 101L164 35L82 41L0 53Z" fill="#44386b"></path><path d="M0 349L82 277L164 265L245 445L327 325L409 343L491 397L573 355L655 313L736 355L818 277L900 355L900 239L818 215L736 227L655 161L573 203L491 251L409 191L327 215L245 293L164 155L82 179L0 179Z" fill="#453f78"></path><path d="M0 529L82 487L164 559L245 565L327 529L409 517L491 505L573 535L655 523L736 499L818 553L900 523L900 353L818 275L736 353L655 311L573 353L491 395L409 341L327 323L245 443L164 263L82 275L0 347Z" fill="#44386b"></path><path d="M0 601L82 601L164 601L245 601L327 601L409 601L491 601L573 601L655 601L736 601L818 601L900 601L900 521L818 551L736 497L655 521L573 533L491 503L409 515L327 527L245 563L164 557L82 485L0 527Z" fill="#3f2e56"></path></svg>